<?xml version="1.0" encoding="UTF-8" standalone="no"?>
<!-- Created with Inkscape (http://www.inkscape.org/) -->

<svg
   xmlns:dc="http://purl.org/dc/elements/1.1/"
   xmlns:cc="http://creativecommons.org/ns#"
   xmlns:rdf="http://www.w3.org/1999/02/22-rdf-syntax-ns#"
   xmlns:svg="http://www.w3.org/2000/svg"
   xmlns="http://www.w3.org/2000/svg"
   xmlns:sodipodi="http://sodipodi.sourceforge.net/DTD/sodipodi-0.dtd"
   xmlns:inkscape="http://www.inkscape.org/namespaces/inkscape"
   width="169"
   height="169"
   viewBox="0 0 44.714583 44.714583"
   version="1.1"
   id="svg8"
   inkscape:version="0.92.4 5da689c313, 2019-01-14"
   sodipodi:docname="theme_custom.svg">
  <defs
     id="defs2" />
  <sodipodi:namedview
     id="base"
     pagecolor="#ffffff"
     bordercolor="#666666"
     borderopacity="1.0"
     inkscape:pageopacity="0.0"
     inkscape:pageshadow="2"
     inkscape:zoom="5.570207"
     inkscape:cx="87.284416"
     inkscape:cy="95.425245"
     inkscape:document-units="mm"
     inkscape:current-layer="layer1"
     showgrid="true"
     inkscape:pagecheckerboard="true"
     fit-margin-top="0"
     fit-margin-left="0"
     fit-margin-right="0"
     fit-margin-bottom="0"
     inkscape:window-width="1366"
     inkscape:window-height="704"
     inkscape:window-x="0"
     inkscape:window-y="27"
     inkscape:window-maximized="1"
     units="px">
    <inkscape:grid
       type="xygrid"
       id="grid961" />
  </sodipodi:namedview>
  <metadata
     id="metadata5">
    <rdf:RDF>
      <cc:Work
         rdf:about="">
        <dc:format>image/svg+xml</dc:format>
        <dc:type
           rdf:resource="http://purl.org/dc/dcmitype/StillImage" />
        <dc:title></dc:title>
      </cc:Work>
    </rdf:RDF>
  </metadata>
  <g
     inkscape:label="Layer 1"
     inkscape:groupmode="layer"
     id="layer1"
     transform="translate(-63.172424,-108.22609)">
    <circle
       style="opacity:1;fill:#ffffff;fill-opacity:1;fill-rule:nonzero;stroke:#ffcc33;stroke-width:3.28107309;stroke-linecap:round;stroke-linejoin:round;stroke-miterlimit:4;stroke-dasharray:none;stroke-opacity:1;paint-order:stroke fill markers"
       id="path949"
       cx="85.529716"
       cy="130.58339"
       r="20.716755" />
    <g
       id="g1281"
       transform="matrix(1.0634916,0,0,1.0624999,-4.1641982,-7.1775355)">
      <path
         style="opacity:1;fill:#336699;fill-opacity:1;fill-rule:nonzero;stroke:none;stroke-width:0.03944175;stroke-linecap:round;stroke-linejoin:round;stroke-miterlimit:4;stroke-dasharray:none;stroke-opacity:1;paint-order:stroke fill markers"
         d="m 76.930755,119.07401 h 1.587502 c 0.293159,0 0.529167,0.23601 0.529167,0.52916 v 1.58751 c 0,0.29316 -0.236008,0.52916 -0.529167,0.52916 h -1.587502 c -0.293158,0 -0.529167,-0.236 -0.529167,-0.52916 v -1.58751 c 0,-0.29315 0.236009,-0.52916 0.529167,-0.52916 z"
         id="rect1185"
         inkscape:connector-curvature="0" />
      <path
         style="opacity:1;fill:#336699;fill-opacity:1;fill-rule:nonzero;stroke:none;stroke-width:0.09165432;stroke-linecap:round;stroke-linejoin:round;stroke-miterlimit:4;stroke-dasharray:none;stroke-opacity:1;paint-order:stroke fill markers"
         d="m 76.930755,125.95317 h 1.587502 c 0.293159,0 0.529167,0.23601 0.529167,0.52917 v 13.22916 c 0,0.29316 -0.236008,0.52917 -0.529167,0.52917 h -1.587502 c -0.293158,0 -0.529167,-0.23601 -0.529167,-0.52917 v -13.22916 c 0,-0.29316 0.236009,-0.52917 0.529167,-0.52917 z"
         id="rect1204"
         inkscape:connector-curvature="0" />
      <path
         style="opacity:1;fill:#336699;fill-opacity:1;fill-rule:nonzero;stroke:none;stroke-width:0.05291667;stroke-linecap:round;stroke-linejoin:round;stroke-miterlimit:4;stroke-dasharray:none;stroke-opacity:1;paint-order:stroke fill markers"
         d="m 76.137005,122.51359 h 3.175006 c 0.293156,0 0.529164,0.23601 0.529164,0.52917 v 1.58749 c 0,0.29316 -0.236008,0.52917 -0.529164,0.52917 h -3.175006 c -0.293156,0 -0.529164,-0.23601 -0.529164,-0.52917 v -1.58749 c 0,-0.29316 0.236008,-0.52917 0.529164,-0.52917 z"
         id="rect1206"
         inkscape:connector-curvature="0" />
      <path
         style="opacity:1;fill:#336699;fill-opacity:1;fill-rule:nonzero;stroke:none;stroke-width:0.05291667;stroke-linecap:round;stroke-linejoin:round;stroke-miterlimit:4;stroke-dasharray:none;stroke-opacity:1;paint-order:stroke fill markers"
         d="m 82.751591,128.59901 h 3.175006 c 0.293156,0 0.529163,0.23601 0.529163,0.52917 v 1.5875 c 0,0.29316 -0.236007,0.52917 -0.529163,0.52917 h -3.175006 c -0.293157,0 -0.529164,-0.23601 -0.529164,-0.52917 v -1.5875 c 0,-0.29316 0.236007,-0.52917 0.529164,-0.52917 z"
         id="rect1206-7"
         inkscape:connector-curvature="0" />
      <path
         style="opacity:1;fill:#336699;fill-opacity:1;fill-rule:nonzero;stroke:none;stroke-width:0.05291667;stroke-linecap:round;stroke-linejoin:round;stroke-miterlimit:4;stroke-dasharray:none;stroke-opacity:1;paint-order:stroke fill markers"
         d="m 83.545338,119.07401 h 1.587506 c 0.293156,0 0.529164,0.23601 0.529164,0.52917 v 7.67291 c 0,0.29316 -0.236008,0.52917 -0.529164,0.52917 h -1.587506 c -0.293157,0 -0.529164,-0.23601 -0.529164,-0.52917 v -7.67291 c 0,-0.29316 0.236007,-0.52917 0.529164,-0.52917 z"
         id="rect1223"
         inkscape:connector-curvature="0" />
      <path
         style="opacity:1;fill:#336699;fill-opacity:1;fill-rule:nonzero;stroke:none;stroke-width:0.05291667;stroke-linecap:round;stroke-linejoin:round;stroke-miterlimit:4;stroke-dasharray:none;stroke-opacity:1;paint-order:stroke fill markers"
         d="m 83.545338,132.03859 h 1.587505 c 0.293157,0 0.529164,0.23601 0.529164,0.52917 v 7.14374 c 0,0.29316 -0.236007,0.52917 -0.529164,0.52917 h -1.587505 c -0.293157,0 -0.529164,-0.23601 -0.529164,-0.52917 v -7.14374 c 0,-0.29316 0.236007,-0.52917 0.529164,-0.52917 z"
         id="rect1225"
         inkscape:connector-curvature="0" />
      <path
         style="opacity:1;fill:#336699;fill-opacity:1;fill-rule:nonzero;stroke:none;stroke-width:0.03944175;stroke-linecap:round;stroke-linejoin:round;stroke-miterlimit:4;stroke-dasharray:none;stroke-opacity:1;paint-order:stroke fill markers"
         d="m 90.159927,137.59485 h 1.587502 c 0.293158,0 0.529167,0.236 0.529167,0.52916 v 1.58751 c 0,0.29315 -0.236009,0.52916 -0.529167,0.52916 h -1.587502 c -0.293158,0 -0.529167,-0.23601 -0.529167,-0.52916 v -1.58751 c 0,-0.29316 0.236009,-0.52916 0.529167,-0.52916 z"
         id="rect1185-0"
         inkscape:connector-curvature="0" />
      <path
         style="opacity:1;fill:#336699;fill-opacity:1;fill-rule:nonzero;stroke:none;stroke-width:0.05291667;stroke-linecap:round;stroke-linejoin:round;stroke-miterlimit:4;stroke-dasharray:none;stroke-opacity:1;paint-order:stroke fill markers"
         d="m 89.36617,134.15526 h 3.175005 c 0.293157,0 0.529164,0.23601 0.529164,0.52917 v 1.58749 c 0,0.29316 -0.236007,0.52917 -0.529164,0.52917 H 89.36617 c -0.293157,0 -0.529164,-0.23601 -0.529164,-0.52917 v -1.58749 c 0,-0.29316 0.236007,-0.52917 0.529164,-0.52917 z"
         id="rect1206-9"
         inkscape:connector-curvature="0" />
      <path
         style="opacity:1;fill:#336699;fill-opacity:1;fill-rule:nonzero;stroke:none;stroke-width:0.09165432;stroke-linecap:round;stroke-linejoin:round;stroke-miterlimit:4;stroke-dasharray:none;stroke-opacity:1;paint-order:stroke fill markers"
         d="m 90.15992,119.07401 h 1.587501 c 0.293159,0 0.529167,0.23601 0.529167,0.52917 v 13.22917 c 0,0.29316 -0.236008,0.52917 -0.529167,0.52917 H 90.15992 c -0.293159,0 -0.529167,-0.23601 -0.529167,-0.52917 v -13.22917 c 0,-0.29316 0.236008,-0.52917 0.529167,-0.52917 z"
         id="rect1204-3"
         inkscape:connector-curvature="0" />
    </g>
  </g>
</svg>
